# xmcd
#
# Track frame offsets:
#  150
#  14900
#  29437
#  43075
#  56612
#  70112
#  80425
#  97487
#  109837
#  125950
#  133062
#  145612
#  156512
#  163862
#  177737
#  188312
#
# Disc length: 2662 seconds
#
# Revision: 1
# Processed by: cddbd v1.5.2PL0 Copyright (c) Steve Scherf et al.
# Submitted via: Collectorz.com_Music_Collector 6.11
#
DISCID=f40a6410
DTITLE=J.B. Lenoir - J.B. Lenoir - Blues Classics
DYEAR=1996
DGENRE=Blues
TTITLE0=Down In Mississippi
TTITLE1=Alabama Blues
TTITLE2=Feelin' Good
TTITLE3=If I Get Lucky
TTITLE4=Mississippi Road
TTITLE5=The Mojo Boogie
TTITLE6=Born Dead
TTITLE7=Talk To Your Daughter
TTITLE8=Move This Rope
TTITLE9=Slow Down
TTITLE10=Shot On Meredith
TTITLE11=Voodoo Music
TTITLE12=Leavin' Here
TTITLE13=Vietnam Blues
TTITLE14=Tax Payin' Blues
TTITLE15=How Much More
EXTD=
EXTT0=
EXTT1=
EXTT2=
EXTT3=
EXTT4=
EXTT5=
EXTT6=
EXTT7=
EXTT8=
EXTT9=
EXTT10=
EXTT11=
EXTT12=
EXTT13=
EXTT14=
EXTT15=
PLAYORDER=
